FILE "SW-030SS.wav" WAVE
  TRACK 01 AUDIO
    INDEX 01 00:00:00
  TRACK 02 AUDIO
    INDEX 00 04:06:12
    INDEX 01 04:08:12
  TRACK 03 AUDIO
    INDEX 00 09:00:13
    INDEX 01 09:02:13
  TRACK 04 AUDIO
    INDEX 00 14:00:51
    INDEX 01 14:02:51
